<?xml version="1.0" encoding="UTF-8" standalone="no"?>
<svg
   xmlns:sketch="http://www.bohemiancoding.com/sketch/ns"
   xmlns:dc="http://purl.org/dc/elements/1.1/"
   xmlns:cc="http://creativecommons.org/ns#"
   xmlns:rdf="http://www.w3.org/1999/02/22-rdf-syntax-ns#"
   xmlns:svg="http://www.w3.org/2000/svg"
   xmlns="http://www.w3.org/2000/svg"
   xmlns:sodipodi="http://sodipodi.sourceforge.net/DTD/sodipodi-0.dtd"
   xmlns:inkscape="http://www.inkscape.org/namespaces/inkscape"
   width="7.0999999in"
   height="7.0999999in"
   viewBox="0 0 681.60006 681.59999"
   version="1.1"
   id="svg858"
   sodipodi:docname="bench.svg"
   inkscape:export-filename="/Users/a21379/logo.png"
   inkscape:export-xdpi="1200"
   inkscape:export-ydpi="1200"
   inkscape:version="1.0.1 (c497b03c, 2020-09-10)">
  <metadata
     id="metadata862">
    <rdf:RDF>
      <cc:Work
         rdf:about="">
        <dc:format>image/svg+xml</dc:format>
        <dc:type
           rdf:resource="http://purl.org/dc/dcmitype/StillImage" />
        <dc:title>Chair</dc:title>
      </cc:Work>
    </rdf:RDF>
  </metadata>
  <sodipodi:namedview
     pagecolor="#ffffff"
     bordercolor="#666666"
     borderopacity="1"
     objecttolerance="10"
     gridtolerance="10"
     guidetolerance="10"
     inkscape:pageopacity="0"
     inkscape:pageshadow="2"
     inkscape:window-width="1625"
     inkscape:window-height="854"
     id="namedview860"
     showgrid="false"
     units="in"
     inkscape:zoom="1.5"
     inkscape:cx="354.47464"
     inkscape:cy="330.92174"
     inkscape:window-x="0"
     inkscape:window-y="25"
     inkscape:window-maximized="0"
     inkscape:current-layer="layer2"
     inkscape:document-rotation="0" />
  <!-- Generator: Sketch 3.0.3 (7891) - http://www.bohemiancoding.com/sketch -->
  <title
     id="title833">Chair</title>
  <desc
     id="desc835">Created with Sketch.</desc>
  <defs
     id="defs837" />
  <g
     inkscape:groupmode="layer"
     id="layer2"
     inkscape:label="bg">
    <rect
       style="fill:#99d8c9;fill-opacity:1"
       id="rect914"
       width="675.57574"
       height="675.57574"
       x="3.3829956"
       y="3.4723816"
       ry="209.7822" />
  </g>
  <g
     inkscape:groupmode="layer"
     id="layer1"
     inkscape:label="bench">
    <path
       d="M 609.1709,357.95951 H 81.170901 c -9.680002,0 -8.800002,7.92 -8.800002,18.48 v 2.64 c 0,10.56 -0.88,32.56 8.800002,32.56 H 116.3709 v 78.32 c 0,10.56 7.92,9.68 17.6,9.68 9.68,0 18.48,0.88 18.48,-9.68 v -78.32 h 377.52 v 78.32 c 0,10.56 7.92,9.68 18.48,9.68 9.68,0 16.72,0.88 16.72,-9.68 v -78.32 h 44 c 9.68,0 8.8,-22 8.8,-32.56 v -2.64 c 0,-10.56 0.88,-18.48 -8.8,-18.48 z"
       id="Shape"
       sketch:type="MSShapeGroup"
       style="fill:#ffffff;fill-opacity:1;fill-rule:evenodd;stroke:#ffffff;stroke-width:17.6;stroke-opacity:1" />
    <g
       id="g939">
      <path
         d="m 149.17087,309.20503 v 55.2"
         id="path840"
         sketch:type="MSShapeGroup"
         style="fill:none;fill-rule:evenodd;stroke:#ffffff;stroke-width:20;stroke-miterlimit:4;stroke-dasharray:none;stroke-opacity:1" />
      <path
         d="m 149.17087,181.20503 v 28"
         id="path844"
         sketch:type="MSShapeGroup"
         style="fill:none;fill-rule:evenodd;stroke:#ffffff;stroke-width:20;stroke-miterlimit:4;stroke-dasharray:none;stroke-opacity:1" />
      <path
         d="m 149.17087,245.20503 v 30.4"
         id="path848"
         sketch:type="MSShapeGroup"
         style="fill:none;fill-rule:evenodd;stroke:#ffffff;stroke-width:20;stroke-miterlimit:4;stroke-dasharray:none;stroke-opacity:1" />
    </g>
    <g
       id="g944">
      <path
         d="m 533.17087,309.20503 v 55.2"
         id="path842"
         sketch:type="MSShapeGroup"
         style="fill:none;fill-rule:evenodd;stroke:#ffffff;stroke-width:20;stroke-miterlimit:4;stroke-dasharray:none;stroke-opacity:1" />
      <path
         d="m 533.17087,181.20503 v 28"
         id="path846"
         sketch:type="MSShapeGroup"
         style="fill:none;fill-rule:evenodd;stroke:#ffffff;stroke-width:20;stroke-miterlimit:4;stroke-dasharray:none;stroke-opacity:1" />
      <path
         d="m 533.17087,245.20503 v 30.4"
         id="path850"
         sketch:type="MSShapeGroup"
         style="fill:none;fill-rule:evenodd;stroke:#ffffff;stroke-width:20;stroke-miterlimit:4;stroke-dasharray:none;stroke-opacity:1" />
    </g>
    <path
       d="m 572.77087,228.40503 c 0,9.6 -7.2,16.8 -16.8,16.8 h -429.6 c -8.8,0 -16.8,-7.2 -16.8,-16.8 v 0 c 0,-9.6 7.2,-16.8 16.8,-15.2 h 429.6 c 9.6,-1.6 16.8,5.6 16.8,15.2 z"
       id="path852"
       sketch:type="MSShapeGroup"
       style="fill:#ffffff;fill-opacity:1;fill-rule:evenodd;stroke:#ffffff;stroke-width:16;stroke-opacity:1" />
    <path
       d="m 574.7709,292.40503 c 0,9.6 -7.2,16.8 -16.8,16.8 h -429.6 c -8.8,0 -16.8,-7.2 -16.8,-16.8 v 0 c 0,-9.6 7.2,-16.8 16.8,-15.2 h 429.6 c 9.6,-1.6 16.8,5.6 16.8,15.2 z"
       id="path854"
       sketch:type="MSShapeGroup"
       style="fill:#ffffff;fill-opacity:1;fill-rule:evenodd;stroke:#ffffff;stroke-width:16;stroke-opacity:1" />
  </g>
</svg>
