<?xml version="1.0" encoding="UTF-8" standalone="no"?>
<svg
   class="svglite"
   width="5.6529999in"
   height="5.6529999in"
   viewBox="0 0 407.01599 407.01599"
   version="1.1"
   id="svg213"
   sodipodi:docname="logo.svg"
   inkscape:version="1.2.1 (9c6d41e4, 2022-07-14)"
   xml:space="preserve"
   xmlns:inkscape="http://www.inkscape.org/namespaces/inkscape"
   xmlns:sodipodi="http://sodipodi.sourceforge.net/DTD/sodipodi-0.dtd"
   xmlns="http://www.w3.org/2000/svg"
   xmlns:svg="http://www.w3.org/2000/svg"
   xmlns:sketch="http://www.bohemiancoding.com/sketch/ns"><sodipodi:namedview
     id="namedview215"
     pagecolor="#ffffff"
     bordercolor="#666666"
     borderopacity="1.0"
     inkscape:showpageshadow="2"
     inkscape:pageopacity="0.0"
     inkscape:pagecheckerboard="0"
     inkscape:deskcolor="#d1d1d1"
     inkscape:document-units="pt"
     showgrid="false"
     inkscape:zoom="0.67521728"
     inkscape:cx="388.02324"
     inkscape:cy="271.02387"
     inkscape:window-width="1476"
     inkscape:window-height="812"
     inkscape:window-x="0"
     inkscape:window-y="25"
     inkscape:window-maximized="0"
     inkscape:current-layer="svg213" /><defs
     id="defs11"><style
       type="text/css"
       id="style9"><![CDATA[
    .svglite line, .svglite polyline, .svglite polygon, .svglite path, .svglite rect, .svglite circle {
      fill: none;
      stroke: #000000;
      stroke-linecap: round;
      stroke-linejoin: round;
      stroke-miterlimit: 10.00;
    }
    .svglite text {
      white-space: pre;
    }
  ]]></style><clipPath
       clipPathUnits="userSpaceOnUse"
       id="clipPath391"><g
         id="g395"><rect
           x="246.63"
           y="0"
           width="352.59"
           height="407"
           id="rect393" /></g></clipPath><clipPath
       clipPathUnits="userSpaceOnUse"
       id="clipPath397"><g
         id="g401"><rect
           x="246.63"
           y="0"
           width="352.59"
           height="407"
           id="rect399" /></g></clipPath><clipPath
       clipPathUnits="userSpaceOnUse"
       id="clipPath403"><g
         id="g407"><rect
           x="246.63"
           y="0"
           width="352.59"
           height="407"
           id="rect405" /></g></clipPath><clipPath
       clipPathUnits="userSpaceOnUse"
       id="clipPath409"><g
         id="g413"><rect
           x="246.63"
           y="0"
           width="352.59"
           height="407"
           id="rect411" /></g></clipPath><clipPath
       clipPathUnits="userSpaceOnUse"
       id="clipPath415"><g
         id="g419"><rect
           x="246.63"
           y="0"
           width="352.59"
           height="407"
           id="rect417" /></g></clipPath><clipPath
       clipPathUnits="userSpaceOnUse"
       id="clipPath421"><g
         id="g425"><rect
           x="246.63"
           y="0"
           width="352.59"
           height="407"
           id="rect423" /></g></clipPath><clipPath
       clipPathUnits="userSpaceOnUse"
       id="clipPath427"><g
         id="g431"><rect
           x="246.63"
           y="0"
           width="352.59"
           height="407"
           id="rect429" /></g></clipPath><clipPath
       clipPathUnits="userSpaceOnUse"
       id="clipPath433"><g
         id="g437"><rect
           x="246.63"
           y="0"
           width="352.59"
           height="407"
           id="rect435" /></g></clipPath><clipPath
       clipPathUnits="userSpaceOnUse"
       id="clipPath439"><g
         id="g443"><rect
           x="246.63"
           y="0"
           width="352.59"
           height="407"
           id="rect441" /></g></clipPath><clipPath
       clipPathUnits="userSpaceOnUse"
       id="clipPath445"><g
         id="g449"><rect
           x="246.63"
           y="0"
           width="352.59"
           height="407"
           id="rect447" /></g></clipPath><clipPath
       clipPathUnits="userSpaceOnUse"
       id="clipPath451"><g
         id="g455"><rect
           x="246.63"
           y="0"
           width="352.59"
           height="407"
           id="rect453" /></g></clipPath></defs><defs
     id="defs18"><clipPath
       id="cpMC4wMHw4NDYuMDB8MC4wMHw0MDcuMDA="><rect
         x="0"
         y="0"
         width="846"
         height="407"
         id="rect15" /></clipPath></defs><defs
     id="defs25"><clipPath
       id="cpMjQ2Ljc3fDU5OS4yM3wwLjAwfDQwNy4wMA=="><rect
         x="246.77"
         y="0"
         width="352.45001"
         height="407"
         id="rect22" /></clipPath></defs><defs
     id="defs36"><clipPath
       id="cpMjQ2LjYzfDU5OS4yM3wwLjAwfDQwNy4wMA=="><rect
         x="246.63"
         y="0"
         width="352.59"
         height="407"
         id="rect33" /></clipPath></defs><defs
     id="defs47"><clipPath
       id="cpMjkzLjIwfDU1Mi42NnwxNTMuNjh8MzUzLjI1"><rect
         x="293.20001"
         y="153.67999"
         width="259.45001"
         height="199.58"
         id="rect44" /></clipPath></defs><g
     id="layer2"
     inkscape:label="bg"
     transform="matrix(0.75,0,0,0.75,-712.02863,-123.1528)"><polygon
       points="250.09,303.36 422.93,403.15 595.77,303.36 595.77,103.78 422.93,3.99 250.09,103.78 "
       style="display:inline;fill:#99d8c9;fill-opacity:1;stroke:none;stroke-width:2.56"
       id="polygon40"
       transform="matrix(1.3333334,0,0,1.3333334,656.8088,164.12107)" /><polygon
       points="595.77,303.36 595.77,103.78 422.93,3.99 250.09,103.78 250.09,303.36 422.93,403.15 "
       style="display:inline;stroke:#74CAB5;stroke-width:2.56"
       id="polygon187"
       clip-path="url(#clipPath451)"
       transform="matrix(1.3333334,0,0,1.3333334,656.8088,164.12107)"
       inkscape:label="polygon187" /></g><g
     id="layer1"
     inkscape:label="bench"
     transform="matrix(0.590625,0,0,0.590625,-0.35856691,-23.551741)"><path
       d="M 609.1709,357.95951 H 81.170901 c -9.680002,0 -8.800002,7.92 -8.800002,18.48 v 2.64 c 0,10.56 -0.88,32.56 8.800002,32.56 H 116.3709 v 78.32 c 0,10.56 7.92,9.68 17.6,9.68 9.68,0 18.48,0.88 18.48,-9.68 v -78.32 h 377.52 v 78.32 c 0,10.56 7.92,9.68 18.48,9.68 9.68,0 16.72,0.88 16.72,-9.68 v -78.32 h 44 c 9.68,0 8.8,-22 8.8,-32.56 v -2.64 c 0,-10.56 0.88,-18.48 -8.8,-18.48 z"
       id="Shape"
       sketch:type="MSShapeGroup"
       style="fill:#ffffff;fill-opacity:1;fill-rule:evenodd;stroke:#ffffff;stroke-width:17.6;stroke-opacity:1" /><path
       d="m 533.17087,245.20503 v 30.4"
       id="path850"
       sketch:type="MSShapeGroup"
       style="fill:none;fill-rule:evenodd;stroke:#ffffff;stroke-width:20;stroke-miterlimit:4;stroke-dasharray:none;stroke-opacity:1"
       transform="translate(-3.3333339e-6)" /><path
       d="m 572.77087,228.40503 c 0,9.6 -7.2,16.8 -16.8,16.8 h -429.6 c -8.8,0 -16.8,-7.2 -16.8,-16.8 v 0 c 0,-9.6 7.2,-16.8 16.8,-15.2 h 429.6 c 9.6,-1.6 16.8,5.6 16.8,15.2 z"
       id="path852"
       sketch:type="MSShapeGroup"
       style="fill:#ffffff;fill-opacity:1;fill-rule:evenodd;stroke:#ffffff;stroke-width:16;stroke-opacity:1" /><path
       d="m 574.7709,292.40503 c 0,9.6 -7.2,16.8 -16.8,16.8 h -429.6 c -8.8,0 -16.8,-7.2 -16.8,-16.8 v 0 c 0,-9.6 7.2,-16.8 16.8,-15.2 h 429.6 c 9.6,-1.6 16.8,5.6 16.8,15.2 z"
       id="path854"
       sketch:type="MSShapeGroup"
       style="fill:#ffffff;fill-opacity:1;fill-rule:evenodd;stroke:#ffffff;stroke-width:16;stroke-opacity:1" /><path
       d="m 533.17087,181.20503 v 28"
       id="path846"
       sketch:type="MSShapeGroup"
       style="fill:none;fill-rule:evenodd;stroke:#ffffff;stroke-width:20;stroke-miterlimit:4;stroke-dasharray:none;stroke-opacity:1"
       inkscape:label="path846"
       transform="translate(-3.3333339e-6)" /><path
       d="m 533.17087,309.20503 v 55.2"
       id="path842"
       sketch:type="MSShapeGroup"
       style="fill:none;fill-rule:evenodd;stroke:#ffffff;stroke-width:20;stroke-miterlimit:4;stroke-dasharray:none;stroke-opacity:1"
       transform="translate(-3.3333339e-6)" /><path
       d="m 149.17087,309.20503 v 55.2"
       id="path840"
       sketch:type="MSShapeGroup"
       style="fill:none;fill-rule:evenodd;stroke:#ffffff;stroke-width:20;stroke-miterlimit:4;stroke-dasharray:none;stroke-opacity:1"
       transform="translate(-3.3333339e-6)" /><path
       d="m 149.17087,181.20503 v 28"
       id="path844"
       sketch:type="MSShapeGroup"
       style="fill:none;fill-rule:evenodd;stroke:#ffffff;stroke-width:20;stroke-miterlimit:4;stroke-dasharray:none;stroke-opacity:1"
       transform="translate(-3.3333339e-6)" /><path
       d="m 149.17087,245.20503 v 30.4"
       id="path848"
       sketch:type="MSShapeGroup"
       style="fill:none;fill-rule:evenodd;stroke:#ffffff;stroke-width:20;stroke-miterlimit:4;stroke-dasharray:none;stroke-opacity:1"
       transform="translate(-3.3333339e-6)" /></g><text
     xml:space="preserve"
     style="font-style:normal;font-variant:normal;font-weight:bold;font-stretch:normal;font-size:52px;line-height:1.25;font-family:'Courier New';-inkscape-font-specification:'Courier New, Bold';font-variant-ligatures:normal;font-variant-caps:normal;font-variant-numeric:normal;font-variant-east-asian:normal;text-align:center;text-anchor:middle;white-space:pre;fill:#ffffff;stroke:#ffffff;stroke-width:0.75;stroke-opacity:1"
     x="204.14276"
     y="315.53204"
     id="text1941"><tspan
       sodipodi:role="line"
       id="tspan1939"
       style="font-style:normal;font-variant:normal;font-weight:bold;font-stretch:normal;font-size:52px;font-family:'Courier New';-inkscape-font-specification:'Courier New, Bold';font-variant-ligatures:normal;font-variant-caps:normal;font-variant-numeric:normal;font-variant-east-asian:normal;fill:#ffffff;stroke:#ffffff;stroke-width:0.75;stroke-opacity:1"
       x="204.14276"
       y="315.53204">prcbench</tspan></text></svg>
